<mxfile host="Electron" modified="2024-02-15T08:54:51.071Z" agent="Mozilla/5.0 (Windows NT 10.0; Win64; x64) AppleWebKit/537.36 (KHTML, like Gecko) draw.io/21.2.8 Chrome/112.0.5615.165 Electron/24.2.0 Safari/537.36" etag="GrzV4z1v2OYxELGYAJL4" version="21.2.8" type="device">
  <diagram name="Page-1" id="2XWkQP5S-hDbL94sL5Vg">
    <mxGraphModel dx="2058" dy="1180" grid="1" gridSize="10" guides="1" tooltips="1" connect="1" arrows="1" fold="1" page="1" pageScale="1" pageWidth="3300" pageHeight="4681" background="#999999" math="0" shadow="0">
      <root>
        <mxCell id="0" />
        <mxCell id="1" parent="0" />
        <mxCell id="APLwThIm-aDqV8bCMrbt-1" value="SplitView" style="rounded=0;whiteSpace=wrap;html=1;fontSize=25;fillColor=#dae8fc;strokeColor=#6c8ebf;" parent="1" vertex="1">
          <mxGeometry x="1323" y="140" width="657" height="60" as="geometry" />
        </mxCell>
        <mxCell id="A4iSVZIlFdX2-tawz_8l-1" value="" style="shape=image;verticalLabelPosition=bottom;labelBackgroundColor=default;verticalAlign=top;aspect=fixed;imageAspect=0;image=data:image/png,iVBORw0KGgoAAAANSUhEUgAAApAAAAIOCAYAAAAP2T1jAAAAAXNSR0IArs4c6QAAAARnQU1BAACxjwv8YQUAAAAJcEhZcwAADsMAAA7DAcdvqGQAACuhSURBVHhe7d0LnFxlfTfw/+4m2YSEJNyxCAQSDAQoBQUMdxERQamXVtuq9eW1VmlrW+3bfvpWa1ulRat9exEvVStiba1FWytVFJGCQLgIKERECQGCQLhKEkKSzSbZ99xmd2azu9lnZi/ZzPebPXOecz9zzpk5vzxnZk7HkUcd3Rf1+vqisUfea1CfIcYZ3ujH3E4LkzZrEhY5Cdpjw7bHvgR2Zh1Ve0JN+EIn5VlOKU1voZY27egmLsbqaBy37BzoN+Q4DQFyUDAcOThWpaw1aKwprsln08JG2LW233iYhC3UJjvFscdkaTwV7eQmZWWn1BaacC1tnaYn3nX2SfFMBh4KZWfjc6wPkoOHDwTIQeFw++xY61G1s9agUYYxurGG1OSkLSxxkkzsE51626ddTKE94yDa+TS+7zMkG2kkk7J1ml7o1NqXO9/TLGdcPA48FDpGCJG52vAiQDbWNA4Kj4OCZfVXGdy9s2hhjZqcdOfbBiOZ+O3Tiqm1bSeDLUQ7aTy5sb2mt9DETzilDMpViXa+bVQfDAeK9d1lOTdUiOxYcuRRdWefxvA4uNZxoLM+VOYauxqMMGhHWpi0efUbIMGkrOukaPKZtskGap/jABiNgVPuBGp6oZOythNucjZPcxOP3yIHBhalKixuFxSLh2GGDQTIuvDYEBCzUvlXlBvz1eDuoexwhOE1OWkLS2xBuzzPdjGFtu4UOxAct+Nj4G19FzcpT7Rttu6Ea3rLtrRLJn5/7ozPsxhahcNcLSBWrdpDw3j1IbIIkA2XsAeFx/5BWWHa9Okxe/ZuMWP6jJjRPSO6urrG9WxQvyYMYUptnolfWUcPMNnKU+1Em5ylNmUKrepkqOLc+MhmvXXr1ujp6YnNm3tjw4YNsaW3N+tfLrMhLBYPZTlXXMI+YsmRA+fZEcLj7rvvHvPmz4un1zwbGzdtjk2bt0Tvli3VCPQbVWoZ2Akw/hxvMLbq3+h39Poa1UmBHWpxO9bvptRZ9U87zISjPRyGmrzVw2dH09frD3UDpk+bFjO7p8es7hmx957zYs2atfHsunXZfMsZjxgi+wPkMOExr53ce++9sz6dsfqpZ2Jzr9DYYEc7d0gDOwDGn+MNxl7tzX9Hr6+mThJsp8XtWL+bUmfVP+0wE9b3HulwGGm5w003mnXd0SFYM0SArDdjxrR43t57xrSujnjiiServtnsi/mXCymLZbmzeBwyPObtvpi7++5ZqTNWrX5SeBxsNDsWJkT+gh6uASaHk8TYaeG9bDSTTvZbZn6o1JpJkme8VaufiC1by6vO5ccbBzJh/2PZowqQNVnP2oh5O6/azC9b5zWPjJXJOjqZ+urf4QY3wMTa0euuPMkyWvn2GmmbjeP2HLwrh921QwwYj9Wa5ENn9VM/i/nz5hUZsD4TDl6xzjxhlr1q7axUFWbPmV185lHN4xAat+Mo1R98+QxqDdQM98417DsaMGmGe116X2/eUNuuhe055m+du/B7cbWZ88z31Jq1sdvs3YruWibsD5NVx0ANZG1A3Zj5t63zL8wAE6V6/QHQmqGyXjNvsfk0taaQz3iYIDnc/JtZ7miN5byr55lnvzwD1tJj7XJ2bVl5q/EzkNWAWnf+Uz2bNveW/RhQ204AsJ1duJZq3NRC2VDbrn7YUMNHkJ+v65vRGGm80cxntMsZS2O8zE09vdHd3V3OtgqReUd9d8fhRxxRBcvaJey8FrJsLzh4Qdy98qdF3+HMnTM7pk/rqrpGr3fL1li3/rmqa4ooN1ALEg98cMzAFNbySYNhjcG2zd9em51N8dacTTzS9C3PP5M6/UinjFoQHKUjFx0cD656MCt19H8Tu77dsfjwI4otUJtv7RJ23l6w4OD40cqHi+7h/O1fXxwLFy2quoZWu/H2I4891b+c59Y9He/+oz+Ozs708DkpRr3d8+c63MjldoDRc8zA1Daa88GoTzD0a3GbjcXm78gmHK9dV1u/ZuY/3GkjMUAuWXRQPPjgqrrQWM641l1dwi4e+2fe/znIUZg/b24cefhhIzZLFi8qmped/uI4+4yy2WfvvZKWM+7yVak1TavttaH23lD9YCSOGWgP+Wvd632ifODP/iQeund5PLLyR2Vzf2Pz0IrlxTg7NrH7bNk1V8ZJJ55QdW0vH3bjd75RdQ2ldpylHG/bVzDWclJZA5n1LLqrdm2k0dRAfv4zn4jnP39hfPX6FdHR2Vc2XXmzLc49ZlHsv9+8WF9dqp49e3Z85cYHivIhu2+IN13wG9HVNa3oHspb3/KmeP/7BnbiAQuXVKXhXfHlL8ady38Y7/2Lv4wbvnNlPPPMmnjVL/1qNbR06T9+LPbea8/G/tlTvuIrX4ynnv5ZPPLoo3HBr79xYHnVxtqxwTukfsLR7iyocczArmGok8hQr+9Rn2xokLbd8oD4svNeE6sff7zsMWjyPffYI7579dfjoMOOrvoMobb7aqFqR0aKB0Ppn3/VzuQB8ZK/++v4nd//o1h2y61V31LDsFsbhxWGXN7IK1HWQNYuYZcrVNzCsCwM+h3IJuQz6ujoigfWro8Hn302Vm1YFz/tWRsP966J3t5t2bbNmupfTdeMrVVpeCce/8J41+/+VhHi8ua1v/LmuOjP3lMNHZ1TXvqK/pCYh8a8yX3yM5+N4449pijXy/td8Ju/He/987+MAw7dcVhtNPjoyBVbp2oAaE+jPQc4VzQnbbt1dXUV4XHdumeHbB5c9VAxzqhUwWpEY7Rb89CYB8Q8KNbXRI4ULMdTywFy67YyGO6zV3d0zNgSa7esiyc3PR2Pbyxvg5N/RKDezD02xW57b6i6hnfUkiPigQdWVV0Rt3zv9qJWcSzk83rgwVVFDWfNRX/+nqJfg3zdtwvoXuBMlO0OPmDKys8dtSY35AmGsTTU6Xo8TuF5iBxNkBwDg0PkZIXHXMsBsnb43/P4w/HAmtWxZsszsTGejc0d64v+fdU2rSo9Y/b89bHbnHLYSP7psi8UNYK1WsN6+WXqvDay//MLWTOU2nj5PM4+6yVFk4+b126uuO/+ePWrzqvGjDjm6KPi2u/eUJTf+r/eFDdcc2VRzuWXtmufjbjiK/9a9MuH5+PlTjz+Rdmwu4ty7tJPXVI0ALC9iQkbba8WUPLNXWsGazbDD5X/xzJEDjX/Sn2IHDI8Dp5umPk0bpj0dR+TS9i5jVlgnD6rN6bP7I1p3ZtjetYUshWvhcfc4fscGIvmH1p1jSy/dH3YokOL0FdfW5irfUYxb+74/p1FWBzOBW//7bjq6v8pmnz8vAYyv4x9yCEHlyNk65iH1fzS9WCXfupjxeci80vatcvaeXDMw+YpJy0tut/xtguKz1rWAmW+zp/89KVFGQC219xJe2eTV56Mphl/I2zL+gBVK+ft+v5DGc0uGs18djR8PNSWOY7L7uz/Ak32WGuXraydsOAiOGbN9O68qQuQ2cavn82iPRYWzWjln2PMQ1/+ZZr6z0Be+vl/qUoRF33oIwNhcJTyELlmzdoimObBLw+hQ8nDYFFzWdVA5kEzD45XfP2bcfwLj83G6CjG+duPfiJe/apzi9rNXD5/ABi9hJPuTuKAQ48cVTP+drDt8sGj3byDQ+OOQuRo1Jafsh7DqL9sXX85ezstLmdgXbOH/i8LVVkx6265BrKmDI9lcJyRt2eUAbL8RvfAgjf39sbGjZuq7tF73/v/Ks447ZSqa3t5GExVq0XML2Xn39weTr7sWg1k3uRftCkC6NosgFa1jv/0uS/EIQsOjledd05xeRwARq92nmRKmqDdN/gzj4M/EzmRWg+QWTLv6dkYJ+69MF60x2Fx3NwXxC/MPiJ+ftaRRf9ylDK+51ly27ZtsTVrdiSvbay/bJ0HvfwycU19mPybD160w9CW/zRP/tM9xU6umlot4nCXr3P5fPPL5dvrqIb9WhZEbyz65F/COeO0k+OGZTcX3bBj+WtjqAaA8bB169bip3qGs/9++xXj7GyG+8LMZIXIlgNkngWPWHxgvP0lZ8XbTz873nbqK+I3Tj0/3nryL8bhi58fu+02O/bdd5/YMwtv02dMLwJkZ+eOT5D5N67zn/GpfUkmv0xc/7uNeZisDcvln3McSR4W86CYX4auv8yc1yIOd/k6l9c25mqXsOunz4NiXuuYzzt35/K7Y/68eUVtJO1icPDb8bE9YKRxU+YDTH2p7x80qm2/HW/Dy77wxeJ3HuvP6/XNrddfXYzTbzS1i+O86/LfX/zwX/35duGxphYiP3LxX1R9xl/H4sWHV1e2+6pL3FU7e1iwYEH86P6Rf0j89995YRx7zPa/qVjT2dlZNHmar7/zzF13LY8P/+3fR+cIPyQ+nPofCx+V0ez8ZF7ojHQM7Oigc/wAwxmXk1abaWIb5m/LzW762lt6Xc4Za3mIHN87+DXOe8nC6ofEs+dWXEnOll9+0by8rtxygMyfTN+2LBxW3aNVLLyzq9ggqZICZOqKNait2+CZpK8zu5rRHAPDHXyOH2BHWjp5kbr96t+Wm9n0/XFhHPdbvoxxPSwaZ76jANn6z/hkc8trEfNbEqY0+TTNhMcdyp9/fTMmxmE9aQNDHTeOJWA0vFdMimZzw5hmjmGM9/wTtVwDuVMZ8407+AVcW4AXNo4BYCKM+YmtTUz2dpuK+61xnce9BnLXNVRAyPsN1R8AxoNzDjunXSdANhX2BUIAdnbOU1PPrr/Ppl6AHJda4cE72osVgJ1Jfl4a3DC8nWH77Nr7qLM/jxWFgc8/jktOa1VtpcZl5bwYGS3HCrAz8F6085va+6iKhgOxqyrkral7Cbv/2TRrqJ2a9/OCBGCqcM4anm0znqZOgBwqMLYcImk/tf8k1DcAO5v8BDfak5z3sZ3brrl/dr4AmRoKU15j/bzY2tNw+93xAOxs8vellPem2viDm3ZnG4yXjhcsPryMX8XnHhs/A3nIggVx4SWXFYNhLL3n1WcW7csvv7xoAxPj4osvLtonXHJC0QYYyn+//uvxwIMPlhG8+A3I8vcfqx+D3IV+xgcAgAkhQAIAkESABAAgiQAJAEASARIAgCQCJAAASQRIAACSVAGyuvd19VD9MGTVAADQToo0WP0ueJEH68sZNZAAACQRIAEASCJAAgCQRIAEACCJAAkAQBIBEgCAJAIkAABJBEgAAJIIkAAAJBEgAQBIUgbI4q409bczLO5YUysCANBmajlwIBMOhEM1kAAAJBEgAQBIIkACAJBEgAQAIIkACQBAEgESAIAkAiQAAEkESAAAkgiQAAAkESABAEiSBcjyFob5bWryh+IONWVH8QcAQJspA2GVCfNimQurLjWQAACkESABAEgiQAIAkESABAAgiQAJAEASARIAgCQCJAAASQRIAACSCJAAACQRIAEASCJAAgCQpLP/Xod1hugFAEA7ybJgfRwsy3nPPjWQAACkESABAEgiQAIAkESABAAgiQAJAEASARIAgCQCJAAASQRIAACSCJAAACQRIAEASNKZ35amr7g3Td/ALWqqEgAA7ak/F2ZBcaBc9lcDCQBAEgESAIAkAiQAAEkESAAAkgiQAAAkESABAEgiQAIAkESABAAgiQAJAEASARIAgCQCJAAASbIAWd7dsL+Vt4v7HJb/AABoL2UGLALhQBrsL/epgQQAII0ACQBAEgESAIAkAiQAAEkESAAAkgiQAAAkESABAEgiQAIAkESABAAgiQAJAECSztr9aYpWcR/DWrkoAgDQhvJY2B8Hs46BshpIAAASCZAAACQRIAEASCJAAgCQRIAEACCJAAkAQBIBEgCAJAIkAABJBEgAAJIIkAAAJBEgAQBI0lne13DwY3W/w7IHAADtpD8DZoX6+2BnpbysBhIAgCQCJAAASQRIAACSCJAAACQRIAEASCJAAgCQRIAEACCJAAkAQBIBEgCAJAIkAABJygBZ3J+muknNwL1qAACgkoXEKieqgQQAIIkACQBAEgESAIAkAiQAAEkESAAAkgiQAAAkESABAEgiQAIAkESABAAgiQAJAEASARIAgCRFgBy4FXbfQLmveMi7AABoK1kGzLNg+VeqK6uBBAAgiQAJAEASARIAgCQCJAAASQRIAACSCJAAACQRIAEASCJAAgCQRIAEACCJAAkAQJLO8paF1a1pqofabWoAAGhf/Zkwy4v1ZTWQAAAkESABAEgiQAIAkESABAAgiQAJAEASARIAgCQCJAAASQRIAACSCJAAACQRIAEASFIFyPLmNNWdDIuH8h8AAO0mz4AD6XD7RKgGEgCAJAIkAABJBEgAAJIIkAAAJBEgAQBIIkACAJBEgAQAIIkACQBAEgESAIAkAiQAAEkESAAAknQWdzcsbnM4cMfD/lse1toAALSPWiDM/8pW1d1XlNVAAgCQRIAEACCJAAkAQBIBEgCAJAIkAABJBEgAAJIIkAAAJBEgAQBIIkACAJBEgAQAIEkRIMvb0+T6b1RT3xMAgDbUkBHLv4IaSAAAkgiQAAAkESABAEgiQAIAkESABAAgiQAJAEASARIAgCQCJAAASQRIAACSCJAAACQRIAEASNIYIOvuf10W63oAANA2+upj4KBIqAYSAIAkAiQAAEkESAAAkgiQAAAkESABAEgiQAIAkESABAAgiQAJAEASARIAgCQCJAAASbIAmd+bpm/gDjXFfWsG3a8GAIA2UsuCWbu6p+HAY58aSAAA0giQAAAkESABAEgiQAIAkESABAAgiQAJAEASARIAgCQCJAAASQRIAACSCJAAACQRIAEASNJZ3d4wU38/7P4HAADaTJkCs8cqDvZ3549ZSw0kAABJBEgAAJIIkAAAJBEgAQBIIkACAJBEgAQAIIkACQBAEgESAIAkAiQAAEkESAAAkpQBsrpNTV6oKw6UAQBoL1UQbMiDVYcaSAAAkgiQAAAkESABAEgiQAIAkESABAAgiQAJAEASARIAgCQCJAAASQRIAACSCJAAACQRIAEASFIEyOK2hvnDUPc8BACgLZWZMHvsa0yHaiABAEgiQAIAkESABAAgiQAJAEASARIAgCQCJAAASQRIAACSCJAAACQRIAEASCJAAgCQpD9ADtygJi/11XUDANButsuCWY9aPzWQAAAkESABAEgiQAIAkESABAAgiQAJAEASARIAgCQCJAAASQRIAACSCJAAACQRIAEASJIFyPLWhduru1/Nrm798rjhsk/GDT9aX/WoeSzu/tIn4qorPx0fft274uanq95jamM8/NX3x79/95mqG8bZ+nviyn++LL5xz3NVj5on4nuXfy4u/+Y/x7ve8N749s+q3mOiL9bfd1X804f/PP7srz4RV9y9JrZVQ4AWPftw3PGJ/4k77uypetSsjfs+d00s+8/r4rNn/mvc+WTVeyxs64mnrrkxrvzjL8W/vffa+PFDvdUAdi2NGbEslf3UQObmHBy7rfh8XH7F3bG56pXre+Sb8e8fvTY6DlsaJ77urHj+7GrAmNgUj193Sfz968+MP/3AV+OJvmlVfxhnc54fc+779/jU138S9aebvkeviU9+/MboWPSiOOs1p8fC3aoBY2H1l+IP3v0fsfagE+L4Ax6Ny37zTfGR2zdWA4GW7L5XzLznxrjqy49EfYzre2h5fOuDP444YmEc88YjY/851YCx8Mw9cd3nn4zZLzwsFsy6N770ss/GzQ+1S60TOQGyMDeOOPeU2HTVf8WK/nNaXzx2zdfisZ9/fbzo0MVx4mvOiud1V4MyW597PJ54+PHYuCXv2hZbNj0XvVuLQVlnb/Ru6u2vYenr3Rg9vYPrW9bFiut/Es//rQ/Fqw6fWfWDibB7HHfOCbHh21fGXXXH+0P/88346dG/GKcfuihe+ounxcENx/uT8cgjT8b66njv3bQhevqP9y3R01N/vG+KjYOO977u4+MPL/t4vPsN58Yr3/Ke+OPzp8VtN90ftVkArZgVC1/7gui54o5YtaHqlb2mn7ry+/HUC0+Io17wvDj6V5fEPnWnmm3r18XTq9ZFdqrK9MXWjT3RW7y+M9u2Zq/xrQOv6c2bY/PmQeFwr1+I133u1XHaLx8XL/6T18RpB62OFQNvKLQBAbIy67jXxPGdV8cNP6gu6227P27971XxgvPPiD2e+GJcfN674/Zn8wEb4oFLfy1+66xXxkVvOy8uPOtNceV9q+Lbbz8z/uGqp4pJt97zkfg/J78xrl6ddz0Xyy9+ZVz87w8VwwbsG6e896PxujMWRHf/yxQmxuxjz4szOr8bV95VnW22rYprvvFwHP3Kk2OfJ/8zfufV74vrik90bIx7LntHnPOKN8aF7/i1eMU5F8YXV/40vvzbr4k/ubq8xr3lxx+L159+YXylON43xC1//cZ455cfKYbVdOy5MBbtUXu72RzPrd8Wu82f4w0Ixkj3icfFUZ0/iju+V11X2PZkLP/y03Hw6w+PuY/dHJ9e+m9x97p8wOZ4+GOfjPcf+7fxqV/+f/GBY/8xrv/JU3HTr3wo/uW/y49xbb3ryvjIC/4xbn447+qJFe/5u/jM54f/DNe2R38aD63bNw45albVh3bg/btm5nFx6ivmxt3fui07Zeb58b/jhidOjtNP2qscXtnyo4/Hx76wR1xwxS3xD1feFBe9ZX1c8bEfxqFn7B+rbro7m3ZL/PSGH8buizbE8jueiOhdEXfdNiuOWXpQNQfYCcw8Os57+e5x21U/yP6Lkx/vV8WVT54Qr1q6Rzm80nvPZ+N9/zov/ug/vhlfu+LK+NybN8TnP/HjWHL6frHi5h9n026NlTf+OOYv3Bg3fz/7D1Tv/XHT7TPjpBcfUM1hsG3xzA1/H39z6wviV84+KDqqvkCLZh0cL3z1rFj5tQeKj6Zsu/fOuOPxw+L4MxqvW2+96zvxxU/Pjtfc+L74v7f+abzzwp649kOPxvNfPi9WX/dwNu22eOyaR2L24T1x7y1Z4tz8ePzkpumx+PTGc2Fea7n645+Ii47807jobStj0UffFCct8IpuJwJkv+5Y+PKzovO6r8Y9z26JVVd9Kzaf8Utx5NxqcOWp266PZ+c+G9f/xW/Gh995Yfzrzc/F5lX3RfdJZ8SM26+LhzY9GN9f1hXHnXdgrL5xeax/eFn8aMZL4tiDbWp2Jt2x5OzTouu734g71m+Nn3znf6LntFfF8btXgyurb78l1s5dH9/4yz+Id73rD+Ojt2yInocejFkvPjlm3rEs7ut5KG64uTP7z9cB8dOb7ol1j9wat884OU4+aIjjvW99LL/0t+PXPvxcvO1TfxXn7OtkA2Nnehx4/pLouOqOWLluWzx6xfLoPftFsWheNbjyzLJ7Y8O8jXH7H14an33LZfGN7/Zk/+97LGacfnhMv+knsXrTk3HPdR2x5LV7xVPXPhwbHloRK7uPiMMPGfx67Yh9f/3N8c5v/W5c8M658cP//dH4yrWbqmG0A6mmzrTDfzFOnn9D3LBsWdz4jXVxzLnHR2OFfF9s27otOn/u1DjrjW+Js3/11+Plb/nT+L33nB97H/LSOHbasrjz+m/H8u4z45RzXhJ733t93HHjzRFLXxIHdFWzgJ3E9MXnxMvn3xpXLrs1vvXNZ2PpK46Nxu+J9UXftm3R8bwXx+t+5Q3x+te/Pt7w5nfHxX/88thvwalx8rTvxbIbrotbZ5wa5559cuy/4ua4ftntESeeEocMPt77nokbPvT2eP+Pz4pLvvTBeNXBM6oBwFjpOurYOHbPFfH9a1fED/5zYyx+7SHZfxXr5a/pvug4cHEsfespcfIF2X/2Ljw/3vzBY2P+oiVx+PT74sdX3x33dS+J4159eMz/0b1xzzUrI047IvYb4nueXXPmxLzn7xMHvuJlcf5bZ8WKK1Y1fDGPXZsAWa/rBbH0lfvHT/7lo/G9OCdOPWbw5zk6Yq+jjonO5XfEpsNOjmNOOi2OOXFJ7Ln3njFnxuJ40ald8cPLl8WM006LffZdGsfsfltc/e1nYtGp2f/sqjnATqNrUbzs3H3jzn/7TFzb99I47+jBX+bqiH2XHBlddy+PDYtOiKVLl8bSExfHvnvNj3kzFsbpp3TFrV++NbpPXRrP2/f4WDrnB/GV76yJo045LAbHw03f/3T8zZ2nxgc+8Lo4tDs7ifX5tiaMuWn7xzG/NC8e+MzV8cO+n48XvXDwK7Ej5h1zUHTesSo2H3FYLD5jcSw+9YCYu8/s2K17/zjypR1x3+fvi2lnLY499l8Uh899IG76+oY46KXPi8H5sWfl6ni6lha3rY1Hvv9c7LZg3navfXZdAmSDrjjgZefHHnd9L2ac+9o4dIhXQvfx74q3nr0iPn72sfHO818S7zj1nLjs1vzbNd2x4JSfjyduejoWL12QvUwPiKNP6YiVqw6LY48cy99DgbHSGYe+9OWx910/iBmvODeOGOJ4n/Wid8SfnHV//Nl5Z8YrX/uaePkZb4iP3JZ/arI7Fp+0JB695Zk45sUHZsf7/nHiyR1x96qFccqS7T9Iv+aBlfHYvZ+NC05fGieddFLRLP2lj8YPa9/6BMZAZ+x33rEx97YHYtprj4sDGqsfCzNOPjted/7j8cUXvi/+8pQPxvuP+Ej817L80vP0OODMA+Nn310fC87YO3tN7xGHndkRP125XxzxC9u/OWy5++q45IhyHhct+Zv45pbT4pd/Y/9sOtpFx6ELF/bltQFFhUDezv8V3X2x8NCF8c5P/ks5ZtvYFls3bYyt02bHjNp/ubb1Fj9h0NU9I7qKV0dfbFm3Op5aE7HbvvvF3JnV9bqtm6Nnc/afwJnVeFs2xaat06O7u2uEF1VfbOvZEFvy5bXRZe73vPrMon355ZcXbSZL/hNUm7Ljfbforjvee7LjfVrd8d677vF4bG3EnH32jT1mVv/v3LY5NvZkJ6T+470nNmTH+6zuzu2O9/ynrJ7r/92fUse0mTFr5jT/i51gF198cdE+4ZITija7mvwneTbHtmndMb126Sv/WZ6e7ByWv96q1/TWNWvjmWey/yTuPzdmz6pehVu3xObsNT1tVjVeb/ZesK0rZgzxms5te259rHl8Y3TMnx/z95wuPO5ivvq6/4qVK1dGR0dH2eR7uCjnrQ7v3dvrzF5kdeEx1zl94CRZ6Ihpc38u9j/o5wbCY65rRnTPqhsvO0HOHDE85rKd0N1e4ZGdSWd2mNaFx1x2vHcPOt6nz90/Djxw/4HwmOucEbMajvfu2G2YE03H9FkxZ86chma28AjjoCO6ZtWFx1xnV0yvhcJCNk4W+vY+ZP5AeMx1TYsZu9WNl82ke5jXdK5z9pzY89B9Yg/hsS15/wYAIEln1H2WvSj6bDsAQHur5cHiI46D4mHWoQYSAIAkAiQAAEkESAAAkgiQAAAkESABAEgiQAIAkESABAAgiQAJAEASARIAgCQCJAAAScoAWXd/mqKYPzTcswYAgLZSZcGhIqEaSAAAkgiQAAAkESABAEgiQAIAkESABAAgiQAJAEASARIAgCQCJAAASQRIAACSCJAAACQRIAEASNI5cH/DgRtgD3XPQwAA2ktjJsy6yj81kAAApBEgAQBIIkACAJBEgAQAIIkACQBAEgESAIAkAiQAAEkESAAAkgiQAAAkESABAEhSBMjiNjX996rpLwAA0Jbq82Bezpq6XmogAQBIIkACAJBEgAQAIIkACQBAEgESAIAkAiQAAEkESAAAkgiQAAAkESABAEgiQAIAkESABAAgyQ4CpPtiAwC0r8YsWOtSAwkAQBIBEgCAJAIkAABJBEgAAJIIkAAAJBEgAQBIIkACAJBEgAQAIIkACQBAEgESAIAkWYAsb0pTPOYPVaG/CABAWylzYF0SzIoDXX1qIAEASCNAAgCQRIAEACCJAAkAQBIBEgCAJAIkAABJBEgAAJIIkAAAJBEgAQBIIkACAJBEgAQAIElDgGy893VjFwAAbSaPgw33wS6pgQQAIIkACQBAEgESAIAkAiQAAEkESAAAkgiQAAAkESABAEgiQAIAkESABAAgiQAJAECShgDZUbXL+9X0dwEA0I6GiYNqIAEASCJAAgCQRIAEACCJAAkAQBIBEgCAJAIkAABJBEgAAJIIkAAAJBEgAQBIIkACAJCks7xtYfFQPdY0dgEAQE4NJAAASQRIAACSCJAAACQRIAEASCJAAgCQRIAEACCJAAkAQBIBEgCAJAIkAABJBEgAAJIIkAAAJCkDpNteAwBQL8+H22XEsocaSAAAkgiQAAAkESABAEgiQAIAkESABAAgiQAJAEASARIAgCQCJAAASQRIAACSCJAAACTpHLhDTVnq797u1jUAALSb7SJh1kMNJAAASQRIAACSCJAAACQRIAEASCJAAgCQRIAEACCJAAkAQBIBEgCAJAIkAABJBEgAAJIIkAAAJOnsqAolN8AGAGCwPCNmTfmnBhIAgDQCJAAASQRIAACSCJAAACQRIAEASCJAAgCQRIAEACCJAAkAQBIBEgCAJAIkAABJOt28EACAFGogAQBIIkACAJBEgAQAIIkACQBAEgESAIAkAiQAAEkESAAAkgiQAAAkESABAEgiQAIAkESABAAgiQAJAMD2Oqp2oerIWnlJgAQAIIkACQBAEgESAIAkAiQAAEkESAAAkgiQAAAkESABAEgiQAIAkESABAAgiQAJAECSIQJkX9UGAKBtDRUJs355bzWQAAAkESABAEgiQAIAkESABAAgiQAJAEASARIAgCQCJAAASQRIAACSCJAAACQRIAEASDJEgOxoaAEA0O4a72uoBhIAgCQCJAAASQRIAACSCJAAACQRIAEASCJAAgCQRIAEACCJAAkAQBIBEgCAJAIkAABJBEgAAJIIkAAAbK+jag9BgAQAIIkACQBAEgESAIAkAiQAAEkESAAAkgiQAAAkESABAEgiQAIAkESABAAgiQAJAEASARIAgGGVdzRsvK+hAAkAQBIBEgCAJAIkAABJBEgAAJIIkAAAJBEgAQBIIkACAJBEgAQAIIkACQBAEgESAIAkAiQAAEk6izsbDjwAAMAQBrKiGkgAAJIIkAAAJBEgAQBIIkACAJBEgAQAIIkACQBAEgESAIAkAiQAAEkESAAAkgiQAAAk6eyrCqUOdzUEAKBBfzTMCnlZDSQAAEkESAAAkgiQAAAkESABAEgiQAIAkKSz/FbNUF+7rr6RDQBAe8rD4OBAmHV3lj3LH/MpioNHAgCgreRxcOiqxLJfdQm7boTqhyHzPlu2bo31a35W9gAAYJe38emNsWXL1qpraFmArAuPebHoLPv1bOqJJx56sCgDALDrW3P/2tjUs6nqqnJi1qpKhf4v0dT3rJV7NvfEk6vur7oAANjVrVn5TGzu2VyUy0xYJcP+sNhR9y3sup611vpn18f3vvm1WPPE6rIfAAC7rPWPro97v7Ii1q9fX5cNc2VHrVcRIDuKrvyh6l21ent748nHH4/vXv6FsgcAALusuy5dnmW/J4sMWMgyYRULM2VH3l39jM+AwWFyzdo1cc8ty+Jrl3w41jzxWNEPAIBdR17zuOyim+KB6x+ItevWFv3Kb2FnTfnXYOASdqZ+YFGuHh5dvTpuu/bb8c9/8YdxyxVfjvvvvN23swEAprD829arb10d9/zbPXH1730n7r7q7nhs9WPlL/I0JMasY1BI7Dh04cK+vnzE7KH4l5WrHkW5vv/06dNi9zm7x4zuGTGze2Z0dXVmQ4pRRzDiwBE1PWXzi2zBxC90aj3NSVnbCdcmh16mPfbn5Gh41951TcLTbJMtm2nymbbNPpn4pZZXdyfaCAvNBuVD85/q6enZFD2bNxefeezt3VKsa1HzmBUay2V30ScvH7pwUZYX85PB4MCYdeR/VXf5V9e/fOhvD6cY3qwmJ52MZbai6fVtel2bf5KTsHmm1j6ZatrkabIDxUmB4RQn0InWwiKbn3TqPM/J2Cd5aJpwLSxyxG2UDSqGV6GwLJft4nn296sfPqicB8iB0JjNtL5ctLNC8ddY3q49jGKaidbCIkd6LiOalKfZBuvaiklYZCsmZRvBJClOQu2gyafZ2taZlIU2ZVKOg6Y3TwvrupMts5hv8Vffzh7r++Xdtf75NMXAsly0iwCZn7ryc1f2UJzE8r/tyoOG5//KnsXfcKopm9PkpO2yzGa1tK7NmoRFtrLQKba6jJPJeK1Ub88MZxI2T2uLbHLqKXQYTMox28Iim17fXWmZxaBsjKxdjNffru9XlouuvFwUB4Z3LFyUX8LOelbhcLhy+TfQHlwbOZxi+ERrYZFNr++kPM02WNdWTMIiW1nopKxuu5hKG7d4l971Tc7TnISlTsoiJ3ihLSxuwtc11+QiW1rXyVjmSKpAuN3l6mJY2b3DS9mNATJvFY9leCzaWaH4q9rVeOX4tWEjKGfUlGpJE6vJRba0rhP8NKfSurZiUo6fVkyx1W1e2zzRCZa9o7eDKfY0ixPuRJvgRU6159j0+k6xZY40cTEkeyjWqyEcNvYruvJyURzUb+Giw7JMmL+hZ6fb4n29ahcBMW/VDav6le2sVPyV7eFUUzSnyUlbWmazWnqaE7y+k7J5ptY+adakPE/Gz2TszuINmuFUp7KpYxJWd8K30VR7jk1OOinHXpnYmjLilNnA4vnkf8Uyqmc3OCTW9Su66vvlAbI47eVvlFVALENjrV0/LCsUf0O0hzPCoB0Zcb4jaWGZzWp6XVtQ208TahIW2azJ2CdTaftMlknZL22geltnJJOwiSZlv0yhQ6EMLxOr6X3S0qo2N/F4LbLYBsVffbvaMnm7rl/Zq3FYMXRRXgOZFVNCYzlq1V1NN5xiumY1OelkLLMVLa1vM1raPJOwgZrVDvuyVVNsdRkn5TliSqhOY1PHJKzuhG+jdniOuSpMNaPpKVt4miNuo2xQMbwYJSvVdZftaur6wFg9/zJMRvx/oMObU6CIIo0AAAAASUVORK5CYII=;" vertex="1" parent="1">
          <mxGeometry x="1324" y="230" width="656" height="526" as="geometry" />
        </mxCell>
      </root>
    </mxGraphModel>
  </diagram>
</mxfile>
